With: Sarah Michelle Gellar, David Thewlis and Jonathan Tucker

The story centers on Veronika, a woman in her mid twenties who appears to have everything: good looks, good job and a great life ahead of her. Yet she decides to end her own life. She is unsuccessful and awakens in a mental hospital where she learns that she a short time to live. However in the hospital she meets people who are only 'insane' because they don't always follow society's rules. With little left to lose, Veronika embarks on a journey on which she frees herself to experience relationships and emotions and ultimately discovers what it means to live.

General:

Complete name                    : Veronika\Decides to Die.avi
Format                           : AVI
Format/Info                      : Audio Video Interleave
File size                        : 1.57 GiB
Duration                         : 1h 38mn
Overall bit rate                 : 2270 Kbps

Video:

Format                           : MPEG-4 Visual
Format profile                   : Simple@L3
Format settings, BVOP            : No
Format settings, QPel            : No
Format settings, GMC             : No warppoints
Format settings, Matrix          : Default (H.263)
Codec ID                         : XVID
Codec ID/Hint                    : XviD
Duration                         : 1h 38mn
Bit rate                         : 1811 Kbps
Width                            : 720 pixels
Height                           : 576 pixels
Display aspect ratio             : 5:4
Frame rate                       : 25.000 fps
Standard                         : PAL
Color space                      : YUV
Chroma subsampling               : 4:2:0
Bit depth                        : 8 bits
Scan type                        : Progressive
Bits/(Pixel*Frame)               : 0.175
Stream size                      : 1.25 GiB (80%)
Writing library                  : XviD 1.1.2 (UTC 2006-11-01)

Audio:

Format                           : AC-3
Format/Info                      : Audio Coding 3
Mode extension                   : CM (complete main)
Codec ID                         : 2000
Duration                         : 1h 38mn
Bit rate mode                    : Constant
Bit rate                         : 448 Kbps
Channel(s)                       : 6 channels
Channel positions                : Front: L C R, Side: L R, LFE
Sampling rate                    : 48.0 KHz
Bit depth                        : 16 bits
Stream size                      : 316 MiB (20%)
Alignment                        : Aligned on interleaves
Interleave, duration             : 32 ms (0.80 video frame)